<svg width="166" height="28" viewBox="0 0 166 28" fill="none" xmlns="http://www.w3.org/2000/svg">
<path d="M0.170455 27V0.818181H9.01705C11.0625 0.818181 12.7415 1.16761 14.054 1.86648C15.3665 2.55682 16.3381 3.5071 16.9688 4.71733C17.5994 5.92756 17.9148 7.30398 17.9148 8.84659C17.9148 10.3892 17.5994 11.7571 16.9688 12.9503C16.3381 14.1435 15.3707 15.081 14.0668 15.7628C12.7628 16.4361 11.0966 16.7727 9.06818 16.7727H1.90909V13.9091H8.96591C10.3636 13.9091 11.4886 13.7045 12.3409 13.2955C13.2017 12.8864 13.8239 12.3068 14.2074 11.5568C14.5994 10.7983 14.7955 9.89489 14.7955 8.84659C14.7955 7.79829 14.5994 6.8821 14.2074 6.09801C13.8153 5.31392 13.1889 4.70881 12.3281 4.28267C11.4673 3.84801 10.3295 3.63068 8.91477 3.63068H3.34091V27H0.170455ZM12.4943 15.2386L18.9375 27H15.2557L8.91477 15.2386H12.4943ZM28.5671 27.4602C27.3228 27.4602 26.1935 27.2259 25.1793 26.7571C24.1651 26.2798 23.3597 25.5938 22.7631 24.6989C22.1665 23.7955 21.8683 22.7045 21.8683 21.4261C21.8683 20.3011 22.0898 19.3892 22.533 18.6903C22.9762 17.983 23.5685 17.429 24.31 17.0284C25.0515 16.6278 25.8697 16.3295 26.7646 16.1335C27.668 15.929 28.5756 15.767 29.4876 15.6477C30.6808 15.4943 31.6481 15.3793 32.3896 15.3026C33.1396 15.2173 33.685 15.0767 34.0259 14.8807C34.3754 14.6847 34.5501 14.3437 34.5501 13.858V13.7557C34.5501 12.4943 34.2049 11.5142 33.5146 10.8153C32.8327 10.1165 31.7972 9.76705 30.408 9.76705C28.9677 9.76705 27.8384 10.0824 27.0202 10.7131C26.2021 11.3437 25.6268 12.017 25.2944 12.733L22.4308 11.7102C22.9421 10.517 23.6239 9.58807 24.4762 8.9233C25.337 8.25 26.2745 7.78125 27.2887 7.51705C28.3114 7.24432 29.3171 7.10795 30.3058 7.10795C30.9364 7.10795 31.6609 7.18466 32.479 7.33807C33.3058 7.48295 34.1026 7.78551 34.8697 8.24574C35.6452 8.70597 36.2887 9.40057 36.8001 10.3295C37.3114 11.2585 37.5671 12.5028 37.5671 14.0625V27H34.5501V24.3409H34.3967C34.1921 24.767 33.8512 25.223 33.3739 25.7088C32.8967 26.1946 32.2617 26.608 31.4691 26.9489C30.6765 27.2898 29.7092 27.4602 28.5671 27.4602ZM29.0273 24.75C30.2205 24.75 31.2262 24.5156 32.0444 24.0469C32.8711 23.5781 33.4933 22.973 33.9109 22.2315C34.337 21.4901 34.5501 20.7102 34.5501 19.892V17.1307C34.4222 17.2841 34.141 17.4247 33.7063 17.5526C33.2802 17.6719 32.7859 17.7784 32.2234 17.8722C31.6694 17.9574 31.1282 18.0341 30.5998 18.1023C30.0799 18.1619 29.658 18.2131 29.3342 18.2557C28.5501 18.358 27.8171 18.5241 27.1353 18.7543C26.462 18.9759 25.9165 19.3125 25.4989 19.7642C25.0898 20.2074 24.8853 20.8125 24.8853 21.5795C24.8853 22.6278 25.2731 23.4205 26.0487 23.9574C26.8327 24.4858 27.8256 24.75 29.0273 24.75ZM47.5227 27L41.5398 7.36364H44.7102L48.9545 22.3977H49.1591L53.3523 7.36364H56.5739L60.7159 22.3466H60.9205L65.1648 7.36364H68.3352L62.3523 27H59.3864L55.0909 11.9148H54.7841L50.4886 27H47.5227ZM93.8011 9H90.6307C90.4432 8.08807 90.1151 7.28693 89.6463 6.59659C89.1861 5.90625 88.6236 5.3267 87.9588 4.85795C87.3026 4.38068 86.5739 4.02273 85.7727 3.78409C84.9716 3.54545 84.1364 3.42614 83.267 3.42614C81.6818 3.42614 80.2457 3.8267 78.9588 4.62784C77.6804 5.42898 76.6619 6.60938 75.9034 8.16903C75.1534 9.72869 74.7784 11.642 74.7784 13.9091C74.7784 16.1761 75.1534 18.0895 75.9034 19.6491C76.6619 21.2088 77.6804 22.3892 78.9588 23.1903C80.2457 23.9915 81.6818 24.392 83.267 24.392C84.1364 24.392 84.9716 24.2727 85.7727 24.0341C86.5739 23.7955 87.3026 23.4418 87.9588 22.973C88.6236 22.4957 89.1861 21.9119 89.6463 21.2216C90.1151 20.5227 90.4432 19.7216 90.6307 18.8182H93.8011C93.5625 20.1562 93.1278 21.3537 92.4972 22.4105C91.8665 23.4673 91.0824 24.3665 90.1449 25.108C89.2074 25.8409 88.1548 26.3991 86.9872 26.7827C85.8281 27.1662 84.5881 27.358 83.267 27.358C81.0341 27.358 79.0483 26.8125 77.3097 25.7216C75.571 24.6307 74.2031 23.0795 73.206 21.0682C72.2088 19.0568 71.7102 16.6705 71.7102 13.9091C71.7102 11.1477 72.2088 8.76136 73.206 6.75C74.2031 4.73864 75.571 3.1875 77.3097 2.09659C79.0483 1.00568 81.0341 0.460226 83.267 0.460226C84.5881 0.460226 85.8281 0.651988 86.9872 1.03551C88.1548 1.41903 89.2074 1.98153 90.1449 2.72301C91.0824 3.45596 91.8665 4.35085 92.4972 5.40767C93.1278 6.45596 93.5625 7.65341 93.8011 9ZM101.532 15.1875V27H98.5153V0.818181H101.532V10.4318H101.788C102.248 9.41761 102.939 8.61222 103.859 8.01562C104.788 7.41051 106.024 7.10795 107.566 7.10795C108.904 7.10795 110.076 7.37642 111.082 7.91335C112.088 8.44176 112.868 9.25568 113.422 10.3551C113.984 11.446 114.265 12.8352 114.265 14.5227V27H111.248V14.7273C111.248 13.1676 110.843 11.9616 110.034 11.1094C109.233 10.2486 108.12 9.81818 106.697 9.81818C105.708 9.81818 104.822 10.027 104.038 10.4446C103.262 10.8622 102.649 11.4716 102.197 12.2727C101.754 13.0739 101.532 14.0455 101.532 15.1875ZM127.762 27.4091C125.989 27.4091 124.434 26.9872 123.096 26.1435C121.766 25.2997 120.727 24.1193 119.977 22.6023C119.235 21.0852 118.864 19.3125 118.864 17.2841C118.864 15.2386 119.235 13.4531 119.977 11.9276C120.727 10.402 121.766 9.21733 123.096 8.37358C124.434 7.52983 125.989 7.10795 127.762 7.10795C129.535 7.10795 131.086 7.52983 132.415 8.37358C133.754 9.21733 134.793 10.402 135.535 11.9276C136.285 13.4531 136.66 15.2386 136.66 17.2841C136.66 19.3125 136.285 21.0852 135.535 22.6023C134.793 24.1193 133.754 25.2997 132.415 26.1435C131.086 26.9872 129.535 27.4091 127.762 27.4091ZM127.762 24.6989C129.109 24.6989 130.217 24.3537 131.086 23.6634C131.955 22.973 132.599 22.0653 133.016 20.9403C133.434 19.8153 133.643 18.5966 133.643 17.2841C133.643 15.9716 133.434 14.7486 133.016 13.6151C132.599 12.4815 131.955 11.5653 131.086 10.8665C130.217 10.1676 129.109 9.81818 127.762 9.81818C126.415 9.81818 125.308 10.1676 124.438 10.8665C123.569 11.5653 122.925 12.4815 122.508 13.6151C122.09 14.7486 121.881 15.9716 121.881 17.2841C121.881 18.5966 122.09 19.8153 122.508 20.9403C122.925 22.0653 123.569 22.973 124.438 23.6634C125.308 24.3537 126.415 24.6989 127.762 24.6989ZM145.046 27L139.063 7.36364H142.234L146.478 22.3977H146.683L150.876 7.36364H154.097L158.239 22.3466H158.444L162.688 7.36364H165.859L159.876 27H156.91L152.614 11.9148H152.308L148.012 27H145.046Z" fill="#CD6645"/>
</svg>
